# Blender v2.82 (sub 7) OBJ File: ''
# www.blender.org
mtllib test.mtl
o Cube
v 1.000000 1.000000 -1.000000
v 1.000000 -1.000000 -1.000000
v -1.000000 1.000000 -1.000000
v -1.000000 -1.000000 -1.000000
v -1.000000 1.000000 1.000000
v -1.000000 -1.000000 1.000000
vt 0.625000 0.000000
vt 0.375000 0.250000
vt 0.375000 0.000000
vt 0.625000 0.250000
vt 0.375000 0.500000
vt 0.625000 0.500000
vn -1.0000 0.0000 0.0000
vn 0.0000 0.0000 -1.0000
usemtl Material
s off
f 5/1/1 4/2/1 6/3/1
f 3/4/2 2/5/2 4/2/2
f 5/1/1 3/4/1 4/2/1
f 3/4/2 1/6/2 2/5/2
